<svg xmlns="http://www.w3.org/2000/svg" xmlns:xlink="http://www.w3.org/1999/xlink" preserveAspectRatio="xMidYMid" width="158.062" height="133" viewBox="0 0 158.062 133">
  <defs>
    <style>
      .cls-1 {
        fill: #bc7d00;
        fill-opacity: 0.9;
        fill-rule: evenodd;
      }
    </style>
  </defs>
  <path d="M158.053,15.312 L143.236,30.625 C143.236,30.625 143.236,29.238 143.236,33.178 C143.236,35.977 142.800,38.650 142.169,41.246 C141.824,62.313 135.331,90.248 108.664,112.297 C56.207,155.668 0.007,117.402 0.007,117.402 C44.458,117.402 44.458,102.088 44.458,102.088 C34.580,102.088 14.824,81.671 14.824,81.671 C19.763,86.775 29.641,81.671 29.641,81.671 C4.946,66.357 4.946,51.044 4.946,51.044 C9.885,56.148 19.763,51.044 19.763,51.044 C-4.932,30.625 9.885,5.103 9.885,5.103 C14.824,30.625 79.030,40.834 79.030,40.834 L79.847,40.412 C79.343,38.078 79.030,33.118 79.030,30.625 C79.030,12.302 93.403,-0.001 111.133,-0.001 C120.892,-0.001 129.527,4.595 135.414,11.698 L138.297,10.208 L153.114,-0.001 L143.236,20.417 L158.053,15.312 Z" class="cls-1"/>
</svg>
